<?xml version="1.0" encoding="UTF-8" standalone="no"?><!DOCTYPE svg PUBLIC "-//W3C//DTD SVG 1.1//EN" "http://www.w3.org/Graphics/SVG/1.1/DTD/svg11.dtd"><svg width="100%" height="100%" viewBox="0 0 233 76" version="1.1" xmlns="http://www.w3.org/2000/svg" xmlns:xlink="http://www.w3.org/1999/xlink" xml:space="preserve" xmlns:serif="http://www.serif.com/" style="fill-rule:evenodd;clip-rule:evenodd;stroke-linejoin:round;stroke-miterlimit:2;"><g><g><path d="M29.52,25.838l-8.352,0l-5.967,33.84l-12.312,0l5.967,-33.84l-8.856,0l2.637,-10.872l29.52,0l-2.637,10.872Z" style="fill:#662cde;fill-rule:nonzero;"/><path d="M55.119,34.19l-2.988,14.904c-0.16,0.912 -0.04,1.524 0.361,1.836c0.401,0.312 1.153,0.468 2.257,0.468l-2.616,8.712c-2.818,0.192 -4.371,0.288 -4.659,0.288c-3.552,0 -5.592,-1.224 -6.12,-3.672l-0.36,0c-2.208,2.448 -5.16,3.672 -8.856,3.672c-2.832,0 -4.843,-0.912 -6.033,-2.736c-1.191,-1.824 -1.507,-4.32 -0.948,-7.488c0.702,-3.984 2.425,-6.744 5.168,-8.28c2.743,-1.536 6.82,-2.544 12.233,-3.024l0.305,-1.728c0.237,-1.344 -0.317,-2.016 -1.661,-2.016c-2.304,0 -6.026,0.696 -11.168,2.088l0.054,-10.512c6.423,-1.584 11.675,-2.376 15.755,-2.376c4.08,0 6.796,0.792 8.149,2.376c1.352,1.584 1.728,4.08 1.127,7.488Zm-17.031,17.784c1.776,0 2.829,-0.936 3.159,-2.808l0.622,-3.528c-1.819,0.24 -3.144,0.612 -3.977,1.116c-0.833,0.504 -1.355,1.356 -1.567,2.556c-0.313,1.776 0.275,2.664 1.763,2.664Z" style="fill:#662cde;fill-rule:nonzero;"/><path d="M66.821,58.886l-1.879,10.656l-12.096,0l7.82,-44.352l9.936,0l0.339,2.16l0.36,0c1.691,-1.968 4.505,-2.952 8.441,-2.952c3.936,0 6.467,1.368 7.592,4.104c1.126,2.736 1.138,7.224 0.038,13.464c-1.1,6.24 -2.771,10.884 -5.012,13.932c-2.242,3.048 -5.643,4.572 -10.203,4.572c-2.112,0 -3.794,-0.528 -5.048,-1.584l-0.288,0Zm6.847,-10.044c0.316,-0.84 0.57,-1.668 0.762,-2.484c0.192,-0.816 0.489,-2.364 0.891,-4.644c0.402,-2.28 0.543,-4.032 0.422,-5.256c-0.12,-1.224 -0.696,-1.836 -1.728,-1.836c-1.032,0 -2.103,0.288 -3.212,0.864l-2.628,14.904c0.836,0.432 1.674,0.648 2.514,0.648c0.84,0 1.467,-0.156 1.882,-0.468c0.415,-0.312 0.781,-0.888 1.097,-1.728Z" style="fill:#662cde;fill-rule:nonzero;"/></g><g><path d="M180.911,32.933l-9.44,0l-0.938,5.321l7.609,-0l-1.332,7.552l-7.609,-0l-2.451,13.902l-9.783,-0l6.264,-35.528l19.795,-0l-2.115,8.753Z" style="fill:#ff7200;fill-rule:nonzero;"/><path d="M184.899,60.28c-4.539,-0 -6.364,-2.517 -5.476,-7.552l3.601,-20.424l9.726,-0l-3.188,18.078c-0.168,0.954 0.167,1.431 1.006,1.431c1.068,-0 2.012,-0.267 2.831,-0.801l3.298,-18.708l9.612,-0l-4.812,27.289l-9.097,0l0.353,-2.002l-0.228,-0c-2.414,1.793 -4.956,2.689 -7.626,2.689Z" style="fill:#ff7200;fill-rule:nonzero;"/><path d="M218.942,34.306c2.414,-1.792 4.88,-2.689 7.397,-2.689c2.517,0 4.179,0.582 4.984,1.745c0.806,1.163 1.004,2.908 0.593,5.235l-3.722,21.111l-9.726,-0l3.148,-17.85c0.168,-0.954 -0.168,-1.43 -1.007,-1.43c-1.068,-0 -2.011,0.267 -2.83,0.801l-3.258,18.479l-9.612,-0l4.832,-27.404l8.754,-0l0.219,2.002l0.228,0Z" style="fill:#ff7200;fill-rule:nonzero;"/></g><path d="M154.483,54.678c-0,2.761 -2.239,5 -5,5c-2.761,-0 -5,-2.239 -5,-5c-0,-2.761 2.239,-5 5,-5c2.761,-0 5,2.239 5,5" style="fill:#36cfe0;"/><path d="M87.188,22.262l0,-14.249c0,-6.159 6.666,-10.008 12,-6.929l51.295,29.616c5.333,3.079 5.333,10.777 0,13.856l-11.719,6.766c-6.388,-0.063 -14.607,-0.197 -14.858,-0.392c-0.401,-0.312 -0.521,-0.924 -0.36,-1.836l2.988,-14.904c0.601,-3.408 0.225,-5.904 -1.128,-7.488c-1.352,-1.584 -4.069,-2.376 -8.149,-2.376c-4.08,0 -9.331,0.792 -15.755,2.376l-0.053,10.512c5.141,-1.392 8.864,-2.088 11.168,-2.088c1.344,0 1.898,0.672 1.661,2.016l-0.305,1.728c-5.413,0.48 -9.491,1.488 -12.233,3.024c-2.743,1.536 -4.466,4.296 -5.168,8.28c-0.559,3.168 -0.243,5.664 0.947,7.488c1.191,1.824 3.202,2.736 6.034,2.736c3.696,0 6.648,-1.224 8.855,-3.672l0.36,0c0.529,2.448 2.569,3.672 6.121,3.672l4.201,-0.027l-23.902,13.801c-5.334,3.079 -12,-0.77 -12,-6.929l0,-11.537c1.759,-3.27 3.164,-7.607 4.123,-13.045c1.282,-7.269 1.034,-12.494 -0.278,-15.681c-0.82,-1.995 -2.087,-3.595 -3.845,-4.718Zm22.314,29.712c1.776,0 2.829,-0.936 3.159,-2.808l0.622,-3.528c-1.818,0.24 -3.143,0.612 -3.976,1.116c-0.833,0.504 -1.355,1.356 -1.567,2.556c-0.313,1.776 0.274,2.664 1.762,2.664Z" style="fill:url(#_Radial1);"/></g><defs><radialGradient id="_Radial1" cx="0" cy="0" r="1" gradientUnits="userSpaceOnUse" gradientTransform="matrix(67.2948,0,0,75.2552,141.999,52.9277)"><stop offset="0" style="stop-color:#b0f;stop-opacity:1"/><stop offset="1" style="stop-color:#662cde;stop-opacity:1"/></radialGradient></defs></svg>